<?xml version="1.0" encoding="UTF-8" standalone="no"?>
<!DOCTYPE svg PUBLIC "-//W3C//DTD SVG 1.1//EN"
 "http://www.w3.org/Graphics/SVG/1.1/DTD/svg11.dtd">
<!-- Generated by graphviz version 2.40.1 (20161225.0304)
 -->
<!-- Title: dependencies Pages: 1 -->
<svg width="1456pt" height="284pt"
 viewBox="0.00 0.00 1456.00 284.00" xmlns="http://www.w3.org/2000/svg" xmlns:xlink="http://www.w3.org/1999/xlink">
<g id="graph0" class="graph" transform="scale(1 1) rotate(0) translate(4 280)">
<title>dependencies</title>
<polygon fill="#ffffff" stroke="transparent" points="-4,4 -4,-280 1452,-280 1452,4 -4,4"/>
<text text-anchor="start" x="703.0091" y="-42.4" font-family="sans-serif" font-weight="bold" font-size="14.00" fill="#000000">Legend</text>
<polygon fill="#ffffb3" stroke="transparent" points="490,-10 490,-30 510,-30 510,-10 490,-10"/>
<text text-anchor="start" x="513.629" y="-15.4" font-family="sans-serif" font-size="14.00" fill="#000000"> &#160;Declarations</text>
<polygon fill="#8dd3c7" stroke="transparent" points="603,-10 603,-30 623,-30 623,-10 603,-10"/>
<text text-anchor="start" x="626.7251" y="-15.4" font-family="sans-serif" font-size="14.00" fill="#000000"> &#160;Module</text>
<polygon fill="#80b1d3" stroke="transparent" points="689,-10 689,-30 709,-30 709,-10 689,-10"/>
<text text-anchor="start" x="712.7812" y="-15.4" font-family="sans-serif" font-size="14.00" fill="#000000"> &#160;Bootstrap</text>
<polygon fill="#fdb462" stroke="transparent" points="786,-10 786,-30 806,-30 806,-10 786,-10"/>
<text text-anchor="start" x="809.6732" y="-15.4" font-family="sans-serif" font-size="14.00" fill="#000000"> &#160;Providers</text>
<polygon fill="#fb8072" stroke="transparent" points="882,-10 882,-30 902,-30 902,-10 882,-10"/>
<text text-anchor="start" x="905.7258" y="-15.4" font-family="sans-serif" font-size="14.00" fill="#000000"> &#160;Exports</text>
<g id="clust1" class="cluster">
<title>cluster_AppModule</title>
<polygon fill="none" stroke="#000000" stroke-dasharray="1,5" points="8,-70 8,-268 1440,-268 1440,-70 8,-70"/>
</g>
<g id="clust2" class="cluster">
<title>cluster_AppModule_declarations</title>
<polygon fill="none" stroke="#000000" points="468,-78 468,-130 1432,-130 1432,-78 468,-78"/>
</g>
<g id="clust10" class="cluster">
<title>cluster_AppModule_imports</title>
<polygon fill="none" stroke="#000000" points="316,-78 316,-130 460,-130 460,-78 316,-78"/>
</g>
<g id="clust12" class="cluster">
<title>cluster_AppModule_bootstrap</title>
<polygon fill="none" stroke="#000000" points="658,-208 658,-260 782,-260 782,-208 658,-208"/>
</g>
<g id="clust13" class="cluster">
<title>cluster_AppModule_providers</title>
<polygon fill="none" stroke="#000000" points="16,-78 16,-130 308,-130 308,-78 16,-78"/>
</g>
<!-- AppComponent -->
<g id="node1" class="node">
<title>AppComponent</title>
<polygon fill="#ffffb3" stroke="#000000" points="1423.9399,-122 1318.0601,-122 1318.0601,-86 1423.9399,-86 1423.9399,-122"/>
<text text-anchor="middle" x="1371" y="-99.8" font-family="Times,serif" font-size="14.00" fill="#000000">AppComponent</text>
</g>
<!-- AppModule -->
<g id="node8" class="node">
<title>AppModule</title>
<polygon fill="#8dd3c7" stroke="#000000" points="761.6571,-187 758.6571,-191 737.6571,-191 734.6571,-187 678.3429,-187 678.3429,-151 761.6571,-151 761.6571,-187"/>
<text text-anchor="middle" x="720" y="-164.8" font-family="Times,serif" font-size="14.00" fill="#000000">AppModule</text>
</g>
<!-- AppComponent&#45;&gt;AppModule -->
<g id="edge1" class="edge">
<title>AppComponent&#45;&gt;AppModule</title>
<path fill="none" stroke="#000000" d="M1371,-122.0109C1371,-144.4852 1371,-180 1371,-180 1371,-180 771.7133,-180 771.7133,-180"/>
<polygon fill="#000000" stroke="#000000" points="771.7133,-176.5001 761.7133,-180 771.7133,-183.5001 771.7133,-176.5001"/>
</g>
<!-- DateValidatorDirective -->
<g id="node2" class="node">
<title>DateValidatorDirective</title>
<polygon fill="#ffffb3" stroke="#000000" points="1300.8779,-122 1153.1221,-122 1153.1221,-86 1300.8779,-86 1300.8779,-122"/>
<text text-anchor="middle" x="1227" y="-99.8" font-family="Times,serif" font-size="14.00" fill="#000000">DateValidatorDirective</text>
</g>
<!-- DateValidatorDirective&#45;&gt;AppModule -->
<g id="edge2" class="edge">
<title>DateValidatorDirective&#45;&gt;AppModule</title>
<path fill="none" stroke="#000000" d="M1227,-122.1289C1227,-142.5724 1227,-173 1227,-173 1227,-173 771.9213,-173 771.9213,-173"/>
<polygon fill="#000000" stroke="#000000" points="771.9213,-169.5001 761.9213,-173 771.9212,-176.5001 771.9213,-169.5001"/>
</g>
<!-- EmailValidator -->
<g id="node3" class="node">
<title>EmailValidator</title>
<polygon fill="#ffffb3" stroke="#000000" points="1135.3077,-122 1032.6923,-122 1032.6923,-86 1135.3077,-86 1135.3077,-122"/>
<text text-anchor="middle" x="1084" y="-99.8" font-family="Times,serif" font-size="14.00" fill="#000000">EmailValidator</text>
</g>
<!-- EmailValidator&#45;&gt;AppModule -->
<g id="edge3" class="edge">
<title>EmailValidator&#45;&gt;AppModule</title>
<path fill="none" stroke="#000000" d="M1084,-122.2667C1084,-140.5552 1084,-166 1084,-166 1084,-166 771.7554,-166 771.7554,-166"/>
<polygon fill="#000000" stroke="#000000" points="771.7555,-162.5001 761.7554,-166 771.7554,-169.5001 771.7555,-162.5001"/>
</g>
<!-- FooterComponent -->
<g id="node4" class="node">
<title>FooterComponent</title>
<polygon fill="#ffffb3" stroke="#000000" points="1014.8809,-122 897.1191,-122 897.1191,-86 1014.8809,-86 1014.8809,-122"/>
<text text-anchor="middle" x="956" y="-99.8" font-family="Times,serif" font-size="14.00" fill="#000000">FooterComponent</text>
</g>
<!-- FooterComponent&#45;&gt;AppModule -->
<g id="edge4" class="edge">
<title>FooterComponent&#45;&gt;AppModule</title>
<path fill="none" stroke="#000000" d="M956,-122.0091C956,-138.0494 956,-159 956,-159 956,-159 771.9201,-159 771.9201,-159"/>
<polygon fill="#000000" stroke="#000000" points="771.9202,-155.5001 761.9201,-159 771.9201,-162.5001 771.9202,-155.5001"/>
</g>
<!-- ForbiddenNameDirective -->
<g id="node5" class="node">
<title>ForbiddenNameDirective</title>
<polygon fill="#ffffb3" stroke="#000000" points="879.5576,-122 720.4424,-122 720.4424,-86 879.5576,-86 879.5576,-122"/>
<text text-anchor="middle" x="800" y="-99.8" font-family="Times,serif" font-size="14.00" fill="#000000">ForbiddenNameDirective</text>
</g>
<!-- ForbiddenNameDirective&#45;&gt;AppModule -->
<g id="edge5" class="edge">
<title>ForbiddenNameDirective&#45;&gt;AppModule</title>
<path fill="none" stroke="#000000" d="M741.1497,-122.1061C741.1497,-122.1061 741.1497,-140.991 741.1497,-140.991"/>
<polygon fill="#000000" stroke="#000000" points="737.6498,-140.9909 741.1497,-150.991 744.6498,-140.991 737.6498,-140.9909"/>
</g>
<!-- NavbarComponent -->
<g id="node6" class="node">
<title>NavbarComponent</title>
<polygon fill="#ffffb3" stroke="#000000" points="702.0297,-122 579.9703,-122 579.9703,-86 702.0297,-86 702.0297,-122"/>
<text text-anchor="middle" x="641" y="-99.8" font-family="Times,serif" font-size="14.00" fill="#000000">NavbarComponent</text>
</g>
<!-- NavbarComponent&#45;&gt;AppModule -->
<g id="edge6" class="edge">
<title>NavbarComponent&#45;&gt;AppModule</title>
<path fill="none" stroke="#000000" d="M690.2181,-122.1061C690.2181,-122.1061 690.2181,-140.991 690.2181,-140.991"/>
<polygon fill="#000000" stroke="#000000" points="686.7182,-140.9909 690.2181,-150.991 693.7182,-140.991 686.7182,-140.9909"/>
</g>
<!-- NgDirective -->
<g id="node7" class="node">
<title>NgDirective</title>
<polygon fill="#ffffb3" stroke="#000000" points="561.6896,-122 476.3104,-122 476.3104,-86 561.6896,-86 561.6896,-122"/>
<text text-anchor="middle" x="519" y="-99.8" font-family="Times,serif" font-size="14.00" fill="#000000">NgDirective</text>
</g>
<!-- NgDirective&#45;&gt;AppModule -->
<g id="edge7" class="edge">
<title>NgDirective&#45;&gt;AppModule</title>
<path fill="none" stroke="#000000" d="M519,-122.0091C519,-138.0494 519,-159 519,-159 519,-159 667.8638,-159 667.8638,-159"/>
<polygon fill="#000000" stroke="#000000" points="667.8638,-162.5001 677.8638,-159 667.8638,-155.5001 667.8638,-162.5001"/>
</g>
<!-- AppComponent  -->
<g id="node10" class="node">
<title>AppComponent </title>
<polygon fill="#80b1d3" stroke="#000000" points="774.439,-252 665.561,-252 665.561,-216 774.439,-216 774.439,-252"/>
<text text-anchor="middle" x="720" y="-229.8" font-family="Times,serif" font-size="14.00" fill="#000000">AppComponent </text>
</g>
<!-- AppModule&#45;&gt;AppComponent  -->
<g id="edge9" class="edge">
<title>AppModule&#45;&gt;AppComponent </title>
<path fill="none" stroke="#000000" stroke-dasharray="1,5" d="M720,-187.1061C720,-187.1061 720,-205.991 720,-205.991"/>
<polygon fill="#000000" stroke="#000000" points="716.5001,-205.9909 720,-215.991 723.5001,-205.991 716.5001,-205.9909"/>
</g>
<!-- AppRoutingModule -->
<g id="node9" class="node">
<title>AppRoutingModule</title>
<polygon fill="#8dd3c7" stroke="#000000" points="452.2744,-122 449.2744,-126 428.2744,-126 425.2744,-122 323.7256,-122 323.7256,-86 452.2744,-86 452.2744,-122"/>
<text text-anchor="middle" x="388" y="-99.8" font-family="Times,serif" font-size="14.00" fill="#000000">AppRoutingModule</text>
</g>
<!-- AppRoutingModule&#45;&gt;AppModule -->
<g id="edge8" class="edge">
<title>AppRoutingModule&#45;&gt;AppModule</title>
<path fill="none" stroke="#000000" d="M388,-122.2667C388,-140.5552 388,-166 388,-166 388,-166 668.2881,-166 668.2881,-166"/>
<polygon fill="#000000" stroke="#000000" points="668.2882,-169.5001 678.2881,-166 668.2881,-162.5001 668.2882,-169.5001"/>
</g>
<!-- JwtInterceptor -->
<g id="node11" class="node">
<title>JwtInterceptor</title>
<ellipse fill="#fdb462" stroke="#000000" cx="233" cy="-104" rx="66.6094" ry="18"/>
<text text-anchor="middle" x="233" y="-99.8" font-family="Times,serif" font-size="14.00" fill="#000000">JwtInterceptor</text>
</g>
<!-- JwtInterceptor&#45;&gt;AppModule -->
<g id="edge10" class="edge">
<title>JwtInterceptor&#45;&gt;AppModule</title>
<path fill="none" stroke="#000000" d="M233,-122.1289C233,-142.5724 233,-173 233,-173 233,-173 668.0572,-173 668.0572,-173"/>
<polygon fill="#000000" stroke="#000000" points="668.0572,-176.5001 678.0572,-173 668.0571,-169.5001 668.0572,-176.5001"/>
</g>
<!-- TareaService -->
<g id="node12" class="node">
<title>TareaService</title>
<ellipse fill="#fdb462" stroke="#000000" cx="86" cy="-104" rx="61.9326" ry="18"/>
<text text-anchor="middle" x="86" y="-99.8" font-family="Times,serif" font-size="14.00" fill="#000000">TareaService</text>
</g>
<!-- TareaService&#45;&gt;AppModule -->
<g id="edge11" class="edge">
<title>TareaService&#45;&gt;AppModule</title>
<path fill="none" stroke="#000000" d="M86,-122.0109C86,-144.4852 86,-180 86,-180 86,-180 667.9105,-180 667.9105,-180"/>
<polygon fill="#000000" stroke="#000000" points="667.9105,-183.5001 677.9105,-180 667.9105,-176.5001 667.9105,-183.5001"/>
</g>
</g>
</svg>
