<?xml version="1.0" encoding="UTF-8" standalone="no"?>
<!DOCTYPE svg PUBLIC "-//W3C//DTD SVG 1.1//EN"
 "http://www.w3.org/Graphics/SVG/1.1/DTD/svg11.dtd">
<!-- Generated by graphviz version 2.40.1 (20161225.0304)
 -->
<!-- Title: dependencies Pages: 1 -->
<svg width="3416pt" height="284pt"
 viewBox="0.00 0.00 3416.00 284.00" xmlns="http://www.w3.org/2000/svg" xmlns:xlink="http://www.w3.org/1999/xlink">
<g id="graph0" class="graph" transform="scale(1 1) rotate(0) translate(4 280)">
<title>dependencies</title>
<polygon fill="#ffffff" stroke="transparent" points="-4,4 -4,-280 3412,-280 3412,4 -4,4"/>
<text text-anchor="start" x="1683.0091" y="-42.4" font-family="sans-serif" font-weight="bold" font-size="14.00" fill="#000000">Legend</text>
<polygon fill="#ffffb3" stroke="transparent" points="1470,-10 1470,-30 1490,-30 1490,-10 1470,-10"/>
<text text-anchor="start" x="1493.629" y="-15.4" font-family="sans-serif" font-size="14.00" fill="#000000"> &#160;Declarations</text>
<polygon fill="#8dd3c7" stroke="transparent" points="1583,-10 1583,-30 1603,-30 1603,-10 1583,-10"/>
<text text-anchor="start" x="1606.7251" y="-15.4" font-family="sans-serif" font-size="14.00" fill="#000000"> &#160;Module</text>
<polygon fill="#80b1d3" stroke="transparent" points="1669,-10 1669,-30 1689,-30 1689,-10 1669,-10"/>
<text text-anchor="start" x="1692.7812" y="-15.4" font-family="sans-serif" font-size="14.00" fill="#000000"> &#160;Bootstrap</text>
<polygon fill="#fdb462" stroke="transparent" points="1766,-10 1766,-30 1786,-30 1786,-10 1766,-10"/>
<text text-anchor="start" x="1789.6732" y="-15.4" font-family="sans-serif" font-size="14.00" fill="#000000"> &#160;Providers</text>
<polygon fill="#fb8072" stroke="transparent" points="1862,-10 1862,-30 1882,-30 1882,-10 1862,-10"/>
<text text-anchor="start" x="1885.7258" y="-15.4" font-family="sans-serif" font-size="14.00" fill="#000000"> &#160;Exports</text>
<g id="clust1" class="cluster">
<title>cluster_AppModule</title>
<polygon fill="none" stroke="#000000" stroke-dasharray="1,5" points="8,-70 8,-268 1440,-268 1440,-70 8,-70"/>
</g>
<g id="clust2" class="cluster">
<title>cluster_AppModule_declarations</title>
<polygon fill="none" stroke="#000000" points="168,-78 168,-130 1132,-130 1132,-78 168,-78"/>
</g>
<g id="clust10" class="cluster">
<title>cluster_AppModule_imports</title>
<polygon fill="none" stroke="#000000" points="16,-78 16,-130 160,-130 160,-78 16,-78"/>
</g>
<g id="clust12" class="cluster">
<title>cluster_AppModule_bootstrap</title>
<polygon fill="none" stroke="#000000" points="658,-208 658,-260 782,-260 782,-208 658,-208"/>
</g>
<g id="clust13" class="cluster">
<title>cluster_AppModule_providers</title>
<polygon fill="none" stroke="#000000" points="1140,-78 1140,-130 1432,-130 1432,-78 1140,-78"/>
</g>
<g id="clust20" class="cluster">
<title>cluster_PersonaModule</title>
<polygon fill="none" stroke="#000000" stroke-dasharray="1,5" points="2230,-70 2230,-195 3060,-195 3060,-70 2230,-70"/>
</g>
<g id="clust21" class="cluster">
<title>cluster_PersonaModule_declarations</title>
<polygon fill="none" stroke="#000000" points="2576,-78 2576,-130 3052,-130 3052,-78 2576,-78"/>
</g>
<g id="clust25" class="cluster">
<title>cluster_PersonaModule_imports</title>
<polygon fill="none" stroke="#000000" points="2404,-78 2404,-130 2568,-130 2568,-78 2404,-78"/>
</g>
<g id="clust28" class="cluster">
<title>cluster_PersonaModule_providers</title>
<polygon fill="none" stroke="#000000" points="2238,-78 2238,-130 2396,-130 2396,-78 2238,-78"/>
</g>
<g id="clust35" class="cluster">
<title>cluster_SharedPipesModule</title>
<polygon fill="none" stroke="#000000" stroke-dasharray="1,5" points="3068,-70 3068,-268 3214,-268 3214,-70 3068,-70"/>
</g>
<g id="clust36" class="cluster">
<title>cluster_SharedPipesModule_declarations</title>
<polygon fill="none" stroke="#000000" points="3078,-78 3078,-130 3204,-130 3204,-78 3078,-78"/>
</g>
<g id="clust39" class="cluster">
<title>cluster_SharedPipesModule_exports</title>
<polygon fill="none" stroke="#000000" points="3076,-208 3076,-260 3206,-260 3206,-208 3076,-208"/>
</g>
<g id="clust42" class="cluster">
<title>cluster_TareaModule</title>
<polygon fill="none" stroke="#000000" stroke-dasharray="1,5" points="1448,-70 1448,-195 2222,-195 2222,-70 1448,-70"/>
</g>
<g id="clust43" class="cluster">
<title>cluster_TareaModule_declarations</title>
<polygon fill="none" stroke="#000000" points="1616,-78 1616,-130 2214,-130 2214,-78 1616,-78"/>
</g>
<g id="clust48" class="cluster">
<title>cluster_TareaModule_imports</title>
<polygon fill="none" stroke="#000000" points="1456,-78 1456,-130 1608,-130 1608,-78 1456,-78"/>
</g>
<g id="clust58" class="cluster">
<title>cluster_TestingModule</title>
<polygon fill="none" stroke="#000000" stroke-dasharray="1,5" points="3222,-70 3222,-195 3400,-195 3400,-70 3222,-70"/>
</g>
<g id="clust59" class="cluster">
<title>cluster_TestingModule_declarations</title>
<polygon fill="none" stroke="#000000" points="3230,-78 3230,-130 3392,-130 3392,-78 3230,-78"/>
</g>
<!-- AppComponent -->
<g id="node1" class="node">
<title>AppComponent</title>
<polygon fill="#ffffb3" stroke="#000000" points="1123.9399,-122 1018.0601,-122 1018.0601,-86 1123.9399,-86 1123.9399,-122"/>
<text text-anchor="middle" x="1071" y="-99.8" font-family="Times,serif" font-size="14.00" fill="#000000">AppComponent</text>
</g>
<!-- AppModule -->
<g id="node8" class="node">
<title>AppModule</title>
<polygon fill="#8dd3c7" stroke="#000000" points="761.6571,-187 758.6571,-191 737.6571,-191 734.6571,-187 678.3429,-187 678.3429,-151 761.6571,-151 761.6571,-187"/>
<text text-anchor="middle" x="720" y="-164.8" font-family="Times,serif" font-size="14.00" fill="#000000">AppModule</text>
</g>
<!-- AppComponent&#45;&gt;AppModule -->
<g id="edge1" class="edge">
<title>AppComponent&#45;&gt;AppModule</title>
<path fill="none" stroke="#000000" d="M1071,-122.2228C1071,-142.3652 1071,-172 1071,-172 1071,-172 771.9902,-172 771.9902,-172"/>
<polygon fill="#000000" stroke="#000000" points="771.9902,-168.5001 761.9902,-172 771.9901,-175.5001 771.9902,-168.5001"/>
</g>
<!-- DateValidatorDirective -->
<g id="node2" class="node">
<title>DateValidatorDirective</title>
<polygon fill="#ffffb3" stroke="#000000" points="1000.8779,-122 853.1221,-122 853.1221,-86 1000.8779,-86 1000.8779,-122"/>
<text text-anchor="middle" x="927" y="-99.8" font-family="Times,serif" font-size="14.00" fill="#000000">DateValidatorDirective</text>
</g>
<!-- DateValidatorDirective&#45;&gt;AppModule -->
<g id="edge2" class="edge">
<title>DateValidatorDirective&#45;&gt;AppModule</title>
<path fill="none" stroke="#000000" d="M927,-122.2222C927,-140.8285 927,-167 927,-167 927,-167 771.8895,-167 771.8895,-167"/>
<polygon fill="#000000" stroke="#000000" points="771.8896,-163.5001 761.8895,-167 771.8895,-170.5001 771.8896,-163.5001"/>
</g>
<!-- EmailValidator -->
<g id="node3" class="node">
<title>EmailValidator</title>
<polygon fill="#ffffb3" stroke="#000000" points="835.3077,-122 732.6923,-122 732.6923,-86 835.3077,-86 835.3077,-122"/>
<text text-anchor="middle" x="784" y="-99.8" font-family="Times,serif" font-size="14.00" fill="#000000">EmailValidator</text>
</g>
<!-- EmailValidator&#45;&gt;AppModule -->
<g id="edge3" class="edge">
<title>EmailValidator&#45;&gt;AppModule</title>
<path fill="none" stroke="#000000" d="M747.3373,-122.1061C747.3373,-122.1061 747.3373,-140.991 747.3373,-140.991"/>
<polygon fill="#000000" stroke="#000000" points="743.8374,-140.9909 747.3373,-150.991 750.8374,-140.991 743.8374,-140.9909"/>
</g>
<!-- FooterComponent -->
<g id="node4" class="node">
<title>FooterComponent</title>
<polygon fill="#ffffb3" stroke="#000000" points="714.8809,-122 597.1191,-122 597.1191,-86 714.8809,-86 714.8809,-122"/>
<text text-anchor="middle" x="656" y="-99.8" font-family="Times,serif" font-size="14.00" fill="#000000">FooterComponent</text>
</g>
<!-- FooterComponent&#45;&gt;AppModule -->
<g id="edge4" class="edge">
<title>FooterComponent&#45;&gt;AppModule</title>
<path fill="none" stroke="#000000" d="M696.5561,-122.1061C696.5561,-122.1061 696.5561,-140.991 696.5561,-140.991"/>
<polygon fill="#000000" stroke="#000000" points="693.0562,-140.9909 696.5561,-150.991 700.0562,-140.991 693.0562,-140.9909"/>
</g>
<!-- ForbiddenNameDirective -->
<g id="node5" class="node">
<title>ForbiddenNameDirective</title>
<polygon fill="#ffffb3" stroke="#000000" points="579.5576,-122 420.4424,-122 420.4424,-86 579.5576,-86 579.5576,-122"/>
<text text-anchor="middle" x="500" y="-99.8" font-family="Times,serif" font-size="14.00" fill="#000000">ForbiddenNameDirective</text>
</g>
<!-- ForbiddenNameDirective&#45;&gt;AppModule -->
<g id="edge5" class="edge">
<title>ForbiddenNameDirective&#45;&gt;AppModule</title>
<path fill="none" stroke="#000000" d="M500,-122.0091C500,-138.0494 500,-159 500,-159 500,-159 668.1018,-159 668.1018,-159"/>
<polygon fill="#000000" stroke="#000000" points="668.1019,-162.5001 678.1018,-159 668.1018,-155.5001 668.1019,-162.5001"/>
</g>
<!-- NavbarComponent -->
<g id="node6" class="node">
<title>NavbarComponent</title>
<polygon fill="#ffffb3" stroke="#000000" points="402.0297,-122 279.9703,-122 279.9703,-86 402.0297,-86 402.0297,-122"/>
<text text-anchor="middle" x="341" y="-99.8" font-family="Times,serif" font-size="14.00" fill="#000000">NavbarComponent</text>
</g>
<!-- NavbarComponent&#45;&gt;AppModule -->
<g id="edge6" class="edge">
<title>NavbarComponent&#45;&gt;AppModule</title>
<path fill="none" stroke="#000000" d="M341,-122.2667C341,-140.5552 341,-166 341,-166 341,-166 667.9923,-166 667.9923,-166"/>
<polygon fill="#000000" stroke="#000000" points="667.9923,-169.5001 677.9923,-166 667.9923,-162.5001 667.9923,-169.5001"/>
</g>
<!-- NgDirective -->
<g id="node7" class="node">
<title>NgDirective</title>
<polygon fill="#ffffb3" stroke="#000000" points="261.6896,-122 176.3104,-122 176.3104,-86 261.6896,-86 261.6896,-122"/>
<text text-anchor="middle" x="219" y="-99.8" font-family="Times,serif" font-size="14.00" fill="#000000">NgDirective</text>
</g>
<!-- NgDirective&#45;&gt;AppModule -->
<g id="edge7" class="edge">
<title>NgDirective&#45;&gt;AppModule</title>
<path fill="none" stroke="#000000" d="M219,-122.1289C219,-142.5724 219,-173 219,-173 219,-173 668.1467,-173 668.1467,-173"/>
<polygon fill="#000000" stroke="#000000" points="668.1468,-176.5001 678.1467,-173 668.1467,-169.5001 668.1468,-176.5001"/>
</g>
<!-- AppComponent  -->
<g id="node10" class="node">
<title>AppComponent </title>
<polygon fill="#80b1d3" stroke="#000000" points="774.439,-252 665.561,-252 665.561,-216 774.439,-216 774.439,-252"/>
<text text-anchor="middle" x="720" y="-229.8" font-family="Times,serif" font-size="14.00" fill="#000000">AppComponent </text>
</g>
<!-- AppModule&#45;&gt;AppComponent  -->
<g id="edge9" class="edge">
<title>AppModule&#45;&gt;AppComponent </title>
<path fill="none" stroke="#000000" stroke-dasharray="1,5" d="M720,-187.1061C720,-187.1061 720,-205.991 720,-205.991"/>
<polygon fill="#000000" stroke="#000000" points="716.5001,-205.9909 720,-215.991 723.5001,-205.991 716.5001,-205.9909"/>
</g>
<!-- AppRoutingModule -->
<g id="node9" class="node">
<title>AppRoutingModule</title>
<polygon fill="#8dd3c7" stroke="#000000" points="152.2744,-122 149.2744,-126 128.2744,-126 125.2744,-122 23.7256,-122 23.7256,-86 152.2744,-86 152.2744,-122"/>
<text text-anchor="middle" x="88" y="-99.8" font-family="Times,serif" font-size="14.00" fill="#000000">AppRoutingModule</text>
</g>
<!-- AppRoutingModule&#45;&gt;AppModule -->
<g id="edge8" class="edge">
<title>AppRoutingModule&#45;&gt;AppModule</title>
<path fill="none" stroke="#000000" d="M88,-122.0109C88,-144.4852 88,-180 88,-180 88,-180 668.0433,-180 668.0433,-180"/>
<polygon fill="#000000" stroke="#000000" points="668.0433,-183.5001 678.0433,-180 668.0432,-176.5001 668.0433,-183.5001"/>
</g>
<!-- JwtInterceptor -->
<g id="node11" class="node">
<title>JwtInterceptor</title>
<ellipse fill="#fdb462" stroke="#000000" cx="1215" cy="-104" rx="66.6094" ry="18"/>
<text text-anchor="middle" x="1215" y="-99.8" font-family="Times,serif" font-size="14.00" fill="#000000">JwtInterceptor</text>
</g>
<!-- JwtInterceptor&#45;&gt;AppModule -->
<g id="edge10" class="edge">
<title>JwtInterceptor&#45;&gt;AppModule</title>
<path fill="none" stroke="#000000" d="M1215,-122.0449C1215,-143.6623 1215,-177 1215,-177 1215,-177 771.7768,-177 771.7768,-177"/>
<polygon fill="#000000" stroke="#000000" points="771.7768,-173.5001 761.7768,-177 771.7768,-180.5001 771.7768,-173.5001"/>
</g>
<!-- TareaService -->
<g id="node12" class="node">
<title>TareaService</title>
<ellipse fill="#fdb462" stroke="#000000" cx="1362" cy="-104" rx="61.9326" ry="18"/>
<text text-anchor="middle" x="1362" y="-99.8" font-family="Times,serif" font-size="14.00" fill="#000000">TareaService</text>
</g>
<!-- TareaService&#45;&gt;AppModule -->
<g id="edge11" class="edge">
<title>TareaService&#45;&gt;AppModule</title>
<path fill="none" stroke="#000000" d="M1341.3446,-121.3107C1341.3446,-144.2902 1341.3446,-182 1341.3446,-182 1341.3446,-182 771.733,-182 771.733,-182"/>
<polygon fill="#000000" stroke="#000000" points="771.733,-178.5001 761.733,-182 771.7329,-185.5001 771.733,-178.5001"/>
</g>
<!-- TareaModule -->
<g id="node26" class="node">
<title>TareaModule</title>
<polygon fill="#8dd3c7" stroke="#000000" points="1817.9077,-187 1814.9077,-191 1793.9077,-191 1790.9077,-187 1726.0923,-187 1726.0923,-151 1817.9077,-151 1817.9077,-187"/>
<text text-anchor="middle" x="1772" y="-164.8" font-family="Times,serif" font-size="14.00" fill="#000000">TareaModule</text>
</g>
<!-- TareaService&#45;&gt;TareaModule -->
<g id="edge24" class="edge">
<title>TareaService&#45;&gt;TareaModule</title>
<path fill="none" stroke="#000000" d="M1382.6554,-121.0882C1382.6554,-138.1968 1382.6554,-162 1382.6554,-162 1382.6554,-162 1716.1923,-162 1716.1923,-162"/>
<polygon fill="#000000" stroke="#000000" points="1716.1924,-165.5001 1726.1923,-162 1716.1923,-158.5001 1716.1924,-165.5001"/>
</g>
<!-- PersonaComponent -->
<g id="node13" class="node">
<title>PersonaComponent</title>
<polygon fill="#ffffb3" stroke="#000000" points="3043.6499,-122 2918.3501,-122 2918.3501,-86 3043.6499,-86 3043.6499,-122"/>
<text text-anchor="middle" x="2981" y="-99.8" font-family="Times,serif" font-size="14.00" fill="#000000">PersonaComponent</text>
</g>
<!-- PersonaModule -->
<g id="node16" class="node">
<title>PersonaModule</title>
<polygon fill="#8dd3c7" stroke="#000000" points="2709.8669,-187 2706.8669,-191 2685.8669,-191 2682.8669,-187 2606.1331,-187 2606.1331,-151 2709.8669,-151 2709.8669,-187"/>
<text text-anchor="middle" x="2658" y="-164.8" font-family="Times,serif" font-size="14.00" fill="#000000">PersonaModule</text>
</g>
<!-- PersonaComponent&#45;&gt;PersonaModule -->
<g id="edge12" class="edge">
<title>PersonaComponent&#45;&gt;PersonaModule</title>
<path fill="none" stroke="#000000" d="M2981,-122.2843C2981,-143.3211 2981,-175 2981,-175 2981,-175 2719.8955,-175 2719.8955,-175"/>
<polygon fill="#000000" stroke="#000000" points="2719.8956,-171.5001 2709.8955,-175 2719.8955,-178.5001 2719.8956,-171.5001"/>
</g>
<!-- PersonaItemComponent -->
<g id="node14" class="node">
<title>PersonaItemComponent</title>
<polygon fill="#ffffb3" stroke="#000000" points="2900.8061,-122 2749.1939,-122 2749.1939,-86 2900.8061,-86 2900.8061,-122"/>
<text text-anchor="middle" x="2825" y="-99.8" font-family="Times,serif" font-size="14.00" fill="#000000">PersonaItemComponent</text>
</g>
<!-- PersonaItemComponent&#45;&gt;PersonaModule -->
<g id="edge13" class="edge">
<title>PersonaItemComponent&#45;&gt;PersonaModule</title>
<path fill="none" stroke="#000000" d="M2825,-122.0225C2825,-139.3734 2825,-163 2825,-163 2825,-163 2719.9244,-163 2719.9244,-163"/>
<polygon fill="#000000" stroke="#000000" points="2719.9245,-159.5001 2709.9244,-163 2719.9244,-166.5001 2719.9245,-159.5001"/>
</g>
<!-- PersonaListComponent -->
<g id="node15" class="node">
<title>PersonaListComponent</title>
<polygon fill="#ffffb3" stroke="#000000" points="2731.9284,-122 2584.0716,-122 2584.0716,-86 2731.9284,-86 2731.9284,-122"/>
<text text-anchor="middle" x="2658" y="-99.8" font-family="Times,serif" font-size="14.00" fill="#000000">PersonaListComponent</text>
</g>
<!-- PersonaListComponent&#45;&gt;PersonaModule -->
<g id="edge14" class="edge">
<title>PersonaListComponent&#45;&gt;PersonaModule</title>
<path fill="none" stroke="#000000" d="M2658,-122.1061C2658,-122.1061 2658,-140.991 2658,-140.991"/>
<polygon fill="#000000" stroke="#000000" points="2654.5001,-140.9909 2658,-150.991 2661.5001,-140.991 2654.5001,-140.9909"/>
</g>
<!-- PersonaRoutingModule -->
<g id="node17" class="node">
<title>PersonaRoutingModule</title>
<polygon fill="#8dd3c7" stroke="#000000" points="2560.4846,-122 2557.4846,-126 2536.4846,-126 2533.4846,-122 2411.5154,-122 2411.5154,-86 2560.4846,-86 2560.4846,-122"/>
<text text-anchor="middle" x="2486" y="-99.8" font-family="Times,serif" font-size="14.00" fill="#000000">PersonaRoutingModule</text>
</g>
<!-- PersonaRoutingModule&#45;&gt;PersonaModule -->
<g id="edge15" class="edge">
<title>PersonaRoutingModule&#45;&gt;PersonaModule</title>
<path fill="none" stroke="#000000" d="M2486,-122.1289C2486,-142.5724 2486,-173 2486,-173 2486,-173 2595.9276,-173 2595.9276,-173"/>
<polygon fill="#000000" stroke="#000000" points="2595.9276,-176.5001 2605.9276,-173 2595.9275,-169.5001 2595.9276,-176.5001"/>
</g>
<!-- PersonaService -->
<g id="node18" class="node">
<title>PersonaService</title>
<ellipse fill="#fdb462" stroke="#000000" cx="2317" cy="-104" rx="70.622" ry="18"/>
<text text-anchor="middle" x="2317" y="-99.8" font-family="Times,serif" font-size="14.00" fill="#000000">PersonaService</text>
</g>
<!-- PersonaService&#45;&gt;PersonaModule -->
<g id="edge16" class="edge">
<title>PersonaService&#45;&gt;PersonaModule</title>
<path fill="none" stroke="#000000" d="M2317,-122.0109C2317,-144.4852 2317,-180 2317,-180 2317,-180 2595.8382,-180 2595.8382,-180"/>
<polygon fill="#000000" stroke="#000000" points="2595.8383,-183.5001 2605.8382,-180 2595.8382,-176.5001 2595.8383,-183.5001"/>
</g>
<!-- EstadoTareaPipe -->
<g id="node19" class="node">
<title>EstadoTareaPipe</title>
<polygon fill="#ffffb3" stroke="#000000" points="3196.3473,-122 3085.6527,-122 3085.6527,-86 3196.3473,-86 3196.3473,-122"/>
<text text-anchor="middle" x="3141" y="-99.8" font-family="Times,serif" font-size="14.00" fill="#000000">EstadoTareaPipe</text>
</g>
<!-- SharedPipesModule -->
<g id="node20" class="node">
<title>SharedPipesModule</title>
<polygon fill="#8dd3c7" stroke="#000000" points="3205.2548,-187 3202.2548,-191 3181.2548,-191 3178.2548,-187 3076.7452,-187 3076.7452,-151 3205.2548,-151 3205.2548,-187"/>
<text text-anchor="middle" x="3141" y="-164.8" font-family="Times,serif" font-size="14.00" fill="#000000">SharedPipesModule</text>
</g>
<!-- EstadoTareaPipe&#45;&gt;SharedPipesModule -->
<g id="edge17" class="edge">
<title>EstadoTareaPipe&#45;&gt;SharedPipesModule</title>
<path fill="none" stroke="#000000" d="M3141,-122.1061C3141,-122.1061 3141,-140.991 3141,-140.991"/>
<polygon fill="#000000" stroke="#000000" points="3137.5001,-140.9909 3141,-150.991 3144.5001,-140.991 3137.5001,-140.9909"/>
</g>
<!-- EstadoTareaPipe  -->
<g id="node21" class="node">
<title>EstadoTareaPipe </title>
<polygon fill="#fb8072" stroke="#000000" points="3198.3477,-252 3083.6523,-252 3083.6523,-216 3198.3477,-216 3198.3477,-252"/>
<text text-anchor="middle" x="3141" y="-229.8" font-family="Times,serif" font-size="14.00" fill="#000000">EstadoTareaPipe </text>
</g>
<!-- SharedPipesModule&#45;&gt;EstadoTareaPipe  -->
<g id="edge18" class="edge">
<title>SharedPipesModule&#45;&gt;EstadoTareaPipe </title>
<path fill="none" stroke="#000000" stroke-dasharray="5,2" d="M3141,-187.1061C3141,-187.1061 3141,-205.991 3141,-205.991"/>
<polygon fill="#000000" stroke="#000000" points="3137.5001,-205.9909 3141,-215.991 3144.5001,-205.991 3137.5001,-205.9909"/>
</g>
<!-- TareaComponent -->
<g id="node22" class="node">
<title>TareaComponent</title>
<polygon fill="#ffffb3" stroke="#000000" points="2205.6896,-122 2092.3104,-122 2092.3104,-86 2205.6896,-86 2205.6896,-122"/>
<text text-anchor="middle" x="2149" y="-99.8" font-family="Times,serif" font-size="14.00" fill="#000000">TareaComponent</text>
</g>
<!-- TareaComponent&#45;&gt;TareaModule -->
<g id="edge19" class="edge">
<title>TareaComponent&#45;&gt;TareaModule</title>
<path fill="none" stroke="#000000" d="M2149,-122.2667C2149,-140.5552 2149,-166 2149,-166 2149,-166 1827.8507,-166 1827.8507,-166"/>
<polygon fill="#000000" stroke="#000000" points="1827.8507,-162.5001 1817.8507,-166 1827.8507,-169.5001 1827.8507,-162.5001"/>
</g>
<!-- TareaItemComponent -->
<g id="node23" class="node">
<title>TareaItemComponent</title>
<polygon fill="#ffffb3" stroke="#000000" points="2074.3459,-122 1935.6541,-122 1935.6541,-86 2074.3459,-86 2074.3459,-122"/>
<text text-anchor="middle" x="2005" y="-99.8" font-family="Times,serif" font-size="14.00" fill="#000000">TareaItemComponent</text>
</g>
<!-- TareaItemComponent&#45;&gt;TareaModule -->
<g id="edge20" class="edge">
<title>TareaItemComponent&#45;&gt;TareaModule</title>
<path fill="none" stroke="#000000" d="M2005,-122.0091C2005,-138.0494 2005,-159 2005,-159 2005,-159 1827.7553,-159 1827.7553,-159"/>
<polygon fill="#000000" stroke="#000000" points="1827.7553,-155.5001 1817.7553,-159 1827.7553,-162.5001 1827.7553,-155.5001"/>
</g>
<!-- TareaListComponent -->
<g id="node24" class="node">
<title>TareaListComponent</title>
<polygon fill="#ffffb3" stroke="#000000" points="1917.4678,-122 1782.5322,-122 1782.5322,-86 1917.4678,-86 1917.4678,-122"/>
<text text-anchor="middle" x="1850" y="-99.8" font-family="Times,serif" font-size="14.00" fill="#000000">TareaListComponent</text>
</g>
<!-- TareaListComponent&#45;&gt;TareaModule -->
<g id="edge21" class="edge">
<title>TareaListComponent&#45;&gt;TareaModule</title>
<path fill="none" stroke="#000000" d="M1800.1098,-122.1061C1800.1098,-122.1061 1800.1098,-140.991 1800.1098,-140.991"/>
<polygon fill="#000000" stroke="#000000" points="1796.6098,-140.9909 1800.1098,-150.991 1803.6098,-140.991 1796.6098,-140.9909"/>
</g>
<!-- TareaPrintComponent -->
<g id="node25" class="node">
<title>TareaPrintComponent</title>
<polygon fill="#ffffb3" stroke="#000000" points="1764.4144,-122 1623.5856,-122 1623.5856,-86 1764.4144,-86 1764.4144,-122"/>
<text text-anchor="middle" x="1694" y="-99.8" font-family="Times,serif" font-size="14.00" fill="#000000">TareaPrintComponent</text>
</g>
<!-- TareaPrintComponent&#45;&gt;TareaModule -->
<g id="edge22" class="edge">
<title>TareaPrintComponent&#45;&gt;TareaModule</title>
<path fill="none" stroke="#000000" d="M1745.2518,-122.1061C1745.2518,-122.1061 1745.2518,-140.991 1745.2518,-140.991"/>
<polygon fill="#000000" stroke="#000000" points="1741.7518,-140.9909 1745.2518,-150.991 1748.7518,-140.991 1741.7518,-140.9909"/>
</g>
<!-- TareaRoutingModule -->
<g id="node27" class="node">
<title>TareaRoutingModule</title>
<polygon fill="#8dd3c7" stroke="#000000" points="1600.0254,-122 1597.0254,-126 1576.0254,-126 1573.0254,-122 1463.9746,-122 1463.9746,-86 1600.0254,-86 1600.0254,-122"/>
<text text-anchor="middle" x="1532" y="-99.8" font-family="Times,serif" font-size="14.00" fill="#000000">TareaRoutingModule</text>
</g>
<!-- TareaRoutingModule&#45;&gt;TareaModule -->
<g id="edge23" class="edge">
<title>TareaRoutingModule&#45;&gt;TareaModule</title>
<path fill="none" stroke="#000000" d="M1532,-122.2396C1532,-137.5706 1532,-157 1532,-157 1532,-157 1716.2929,-157 1716.2929,-157"/>
<polygon fill="#000000" stroke="#000000" points="1716.293,-160.5001 1726.2929,-157 1716.2929,-153.5001 1716.293,-160.5001"/>
</g>
<!-- HelloworldComponent -->
<g id="node28" class="node">
<title>HelloworldComponent</title>
<polygon fill="#ffffb3" stroke="#000000" points="3383.5926,-122 3238.4074,-122 3238.4074,-86 3383.5926,-86 3383.5926,-122"/>
<text text-anchor="middle" x="3311" y="-99.8" font-family="Times,serif" font-size="14.00" fill="#000000">HelloworldComponent</text>
</g>
<!-- TestingModule -->
<g id="node29" class="node">
<title>TestingModule</title>
<polygon fill="#8dd3c7" stroke="#000000" points="3361.5438,-187 3358.5438,-191 3337.5438,-191 3334.5438,-187 3260.4562,-187 3260.4562,-151 3361.5438,-151 3361.5438,-187"/>
<text text-anchor="middle" x="3311" y="-164.8" font-family="Times,serif" font-size="14.00" fill="#000000">TestingModule</text>
</g>
<!-- HelloworldComponent&#45;&gt;TestingModule -->
<g id="edge25" class="edge">
<title>HelloworldComponent&#45;&gt;TestingModule</title>
<path fill="none" stroke="#000000" d="M3311,-122.1061C3311,-122.1061 3311,-140.991 3311,-140.991"/>
<polygon fill="#000000" stroke="#000000" points="3307.5001,-140.9909 3311,-150.991 3314.5001,-140.991 3307.5001,-140.9909"/>
</g>
</g>
</svg>
