<?xml version="1.0" encoding="UTF-8" standalone="no"?>
<!DOCTYPE svg PUBLIC "-//W3C//DTD SVG 1.1//EN"
 "http://www.w3.org/Graphics/SVG/1.1/DTD/svg11.dtd">
<!-- Generated by graphviz version 2.40.1 (20161225.0304)
 -->
<!-- Title: dependencies Pages: 1 -->
<svg width="854pt" height="211pt"
 viewBox="0.00 0.00 854.00 211.00" xmlns="http://www.w3.org/2000/svg" xmlns:xlink="http://www.w3.org/1999/xlink">
<g id="graph0" class="graph" transform="scale(1 1) rotate(0) translate(4 207)">
<title>dependencies</title>
<polygon fill="#ffffff" stroke="transparent" points="-4,4 -4,-207 850,-207 850,4 -4,4"/>
<text text-anchor="start" x="402.0091" y="-42.4" font-family="sans-serif" font-weight="bold" font-size="14.00" fill="#000000">Legend</text>
<polygon fill="#ffffb3" stroke="transparent" points="189,-10 189,-30 209,-30 209,-10 189,-10"/>
<text text-anchor="start" x="212.629" y="-15.4" font-family="sans-serif" font-size="14.00" fill="#000000"> &#160;Declarations</text>
<polygon fill="#8dd3c7" stroke="transparent" points="302,-10 302,-30 322,-30 322,-10 302,-10"/>
<text text-anchor="start" x="325.7251" y="-15.4" font-family="sans-serif" font-size="14.00" fill="#000000"> &#160;Module</text>
<polygon fill="#80b1d3" stroke="transparent" points="388,-10 388,-30 408,-30 408,-10 388,-10"/>
<text text-anchor="start" x="411.7812" y="-15.4" font-family="sans-serif" font-size="14.00" fill="#000000"> &#160;Bootstrap</text>
<polygon fill="#fdb462" stroke="transparent" points="485,-10 485,-30 505,-30 505,-10 485,-10"/>
<text text-anchor="start" x="508.6732" y="-15.4" font-family="sans-serif" font-size="14.00" fill="#000000"> &#160;Providers</text>
<polygon fill="#fb8072" stroke="transparent" points="581,-10 581,-30 601,-30 601,-10 581,-10"/>
<text text-anchor="start" x="604.7258" y="-15.4" font-family="sans-serif" font-size="14.00" fill="#000000"> &#160;Exports</text>
<g id="clust1" class="cluster">
<title>cluster_PersonaModule</title>
<polygon fill="none" stroke="#000000" stroke-dasharray="1,5" points="8,-70 8,-195 838,-195 838,-70 8,-70"/>
</g>
<g id="clust2" class="cluster">
<title>cluster_PersonaModule_declarations</title>
<polygon fill="none" stroke="#000000" points="354,-78 354,-130 830,-130 830,-78 354,-78"/>
</g>
<g id="clust6" class="cluster">
<title>cluster_PersonaModule_imports</title>
<polygon fill="none" stroke="#000000" points="182,-78 182,-130 346,-130 346,-78 182,-78"/>
</g>
<g id="clust9" class="cluster">
<title>cluster_PersonaModule_providers</title>
<polygon fill="none" stroke="#000000" points="16,-78 16,-130 174,-130 174,-78 16,-78"/>
</g>
<!-- PersonaComponent -->
<g id="node1" class="node">
<title>PersonaComponent</title>
<polygon fill="#ffffb3" stroke="#000000" points="821.6499,-122 696.3501,-122 696.3501,-86 821.6499,-86 821.6499,-122"/>
<text text-anchor="middle" x="759" y="-99.8" font-family="Times,serif" font-size="14.00" fill="#000000">PersonaComponent</text>
</g>
<!-- PersonaModule -->
<g id="node4" class="node">
<title>PersonaModule</title>
<polygon fill="#8dd3c7" stroke="#000000" points="487.8669,-187 484.8669,-191 463.8669,-191 460.8669,-187 384.1331,-187 384.1331,-151 487.8669,-151 487.8669,-187"/>
<text text-anchor="middle" x="436" y="-164.8" font-family="Times,serif" font-size="14.00" fill="#000000">PersonaModule</text>
</g>
<!-- PersonaComponent&#45;&gt;PersonaModule -->
<g id="edge1" class="edge">
<title>PersonaComponent&#45;&gt;PersonaModule</title>
<path fill="none" stroke="#000000" d="M759,-122.2843C759,-143.3211 759,-175 759,-175 759,-175 497.8955,-175 497.8955,-175"/>
<polygon fill="#000000" stroke="#000000" points="497.8956,-171.5001 487.8955,-175 497.8955,-178.5001 497.8956,-171.5001"/>
</g>
<!-- PersonaItemComponent -->
<g id="node2" class="node">
<title>PersonaItemComponent</title>
<polygon fill="#ffffb3" stroke="#000000" points="678.8061,-122 527.1939,-122 527.1939,-86 678.8061,-86 678.8061,-122"/>
<text text-anchor="middle" x="603" y="-99.8" font-family="Times,serif" font-size="14.00" fill="#000000">PersonaItemComponent</text>
</g>
<!-- PersonaItemComponent&#45;&gt;PersonaModule -->
<g id="edge2" class="edge">
<title>PersonaItemComponent&#45;&gt;PersonaModule</title>
<path fill="none" stroke="#000000" d="M603,-122.0225C603,-139.3734 603,-163 603,-163 603,-163 497.9244,-163 497.9244,-163"/>
<polygon fill="#000000" stroke="#000000" points="497.9245,-159.5001 487.9244,-163 497.9244,-166.5001 497.9245,-159.5001"/>
</g>
<!-- PersonaListComponent -->
<g id="node3" class="node">
<title>PersonaListComponent</title>
<polygon fill="#ffffb3" stroke="#000000" points="509.9284,-122 362.0716,-122 362.0716,-86 509.9284,-86 509.9284,-122"/>
<text text-anchor="middle" x="436" y="-99.8" font-family="Times,serif" font-size="14.00" fill="#000000">PersonaListComponent</text>
</g>
<!-- PersonaListComponent&#45;&gt;PersonaModule -->
<g id="edge3" class="edge">
<title>PersonaListComponent&#45;&gt;PersonaModule</title>
<path fill="none" stroke="#000000" d="M436,-122.1061C436,-122.1061 436,-140.991 436,-140.991"/>
<polygon fill="#000000" stroke="#000000" points="432.5001,-140.9909 436,-150.991 439.5001,-140.991 432.5001,-140.9909"/>
</g>
<!-- PersonaRoutingModule -->
<g id="node5" class="node">
<title>PersonaRoutingModule</title>
<polygon fill="#8dd3c7" stroke="#000000" points="338.4846,-122 335.4846,-126 314.4846,-126 311.4846,-122 189.5154,-122 189.5154,-86 338.4846,-86 338.4846,-122"/>
<text text-anchor="middle" x="264" y="-99.8" font-family="Times,serif" font-size="14.00" fill="#000000">PersonaRoutingModule</text>
</g>
<!-- PersonaRoutingModule&#45;&gt;PersonaModule -->
<g id="edge4" class="edge">
<title>PersonaRoutingModule&#45;&gt;PersonaModule</title>
<path fill="none" stroke="#000000" d="M264,-122.0225C264,-139.3734 264,-163 264,-163 264,-163 373.9276,-163 373.9276,-163"/>
<polygon fill="#000000" stroke="#000000" points="373.9276,-166.5001 383.9276,-163 373.9275,-159.5001 373.9276,-166.5001"/>
</g>
<!-- PersonaService -->
<g id="node6" class="node">
<title>PersonaService</title>
<ellipse fill="#fdb462" stroke="#000000" cx="95" cy="-104" rx="70.622" ry="18"/>
<text text-anchor="middle" x="95" y="-99.8" font-family="Times,serif" font-size="14.00" fill="#000000">PersonaService</text>
</g>
<!-- PersonaService&#45;&gt;PersonaModule -->
<g id="edge5" class="edge">
<title>PersonaService&#45;&gt;PersonaModule</title>
<path fill="none" stroke="#000000" d="M95,-122.2843C95,-143.3211 95,-175 95,-175 95,-175 373.8382,-175 373.8382,-175"/>
<polygon fill="#000000" stroke="#000000" points="373.8383,-178.5001 383.8382,-175 373.8382,-171.5001 373.8383,-178.5001"/>
</g>
</g>
</svg>
