<?xml version="1.0" encoding="UTF-8" standalone="no"?>
<!DOCTYPE svg PUBLIC "-//W3C//DTD SVG 1.1//EN"
 "http://www.w3.org/Graphics/SVG/1.1/DTD/svg11.dtd">
<!-- Generated by graphviz version 2.40.1 (20161225.0304)
 -->
<!-- Title: dependencies Pages: 1 -->
<svg width="946pt" height="211pt"
 viewBox="0.00 0.00 946.00 211.00" xmlns="http://www.w3.org/2000/svg" xmlns:xlink="http://www.w3.org/1999/xlink">
<g id="graph0" class="graph" transform="scale(1 1) rotate(0) translate(4 207)">
<title>dependencies</title>
<polygon fill="#ffffff" stroke="transparent" points="-4,4 -4,-207 942,-207 942,4 -4,4"/>
<text text-anchor="start" x="448.0091" y="-42.4" font-family="sans-serif" font-weight="bold" font-size="14.00" fill="#000000">Legend</text>
<polygon fill="#ffffb3" stroke="transparent" points="235,-10 235,-30 255,-30 255,-10 235,-10"/>
<text text-anchor="start" x="258.629" y="-15.4" font-family="sans-serif" font-size="14.00" fill="#000000"> &#160;Declarations</text>
<polygon fill="#8dd3c7" stroke="transparent" points="348,-10 348,-30 368,-30 368,-10 348,-10"/>
<text text-anchor="start" x="371.7251" y="-15.4" font-family="sans-serif" font-size="14.00" fill="#000000"> &#160;Module</text>
<polygon fill="#80b1d3" stroke="transparent" points="434,-10 434,-30 454,-30 454,-10 434,-10"/>
<text text-anchor="start" x="457.7812" y="-15.4" font-family="sans-serif" font-size="14.00" fill="#000000"> &#160;Bootstrap</text>
<polygon fill="#fdb462" stroke="transparent" points="531,-10 531,-30 551,-30 551,-10 531,-10"/>
<text text-anchor="start" x="554.6732" y="-15.4" font-family="sans-serif" font-size="14.00" fill="#000000"> &#160;Providers</text>
<polygon fill="#fb8072" stroke="transparent" points="627,-10 627,-30 647,-30 647,-10 627,-10"/>
<text text-anchor="start" x="650.7258" y="-15.4" font-family="sans-serif" font-size="14.00" fill="#000000"> &#160;Exports</text>
<g id="clust1" class="cluster">
<title>cluster_TareaModule</title>
<polygon fill="none" stroke="#000000" stroke-dasharray="1,5" points="8,-70 8,-195 930,-195 930,-70 8,-70"/>
</g>
<g id="clust2" class="cluster">
<title>cluster_TareaModule_declarations</title>
<polygon fill="none" stroke="#000000" points="324,-78 324,-130 922,-130 922,-78 324,-78"/>
</g>
<g id="clust7" class="cluster">
<title>cluster_TareaModule_imports</title>
<polygon fill="none" stroke="#000000" points="164,-78 164,-130 316,-130 316,-78 164,-78"/>
</g>
<g id="clust10" class="cluster">
<title>cluster_TareaModule_providers</title>
<polygon fill="none" stroke="#000000" points="16,-78 16,-130 156,-130 156,-78 16,-78"/>
</g>
<!-- TareaComponent -->
<g id="node1" class="node">
<title>TareaComponent</title>
<polygon fill="#ffffb3" stroke="#000000" points="913.6896,-122 800.3104,-122 800.3104,-86 913.6896,-86 913.6896,-122"/>
<text text-anchor="middle" x="857" y="-99.8" font-family="Times,serif" font-size="14.00" fill="#000000">TareaComponent</text>
</g>
<!-- TareaModule -->
<g id="node5" class="node">
<title>TareaModule</title>
<polygon fill="#8dd3c7" stroke="#000000" points="525.9077,-187 522.9077,-191 501.9077,-191 498.9077,-187 434.0923,-187 434.0923,-151 525.9077,-151 525.9077,-187"/>
<text text-anchor="middle" x="480" y="-164.8" font-family="Times,serif" font-size="14.00" fill="#000000">TareaModule</text>
</g>
<!-- TareaComponent&#45;&gt;TareaModule -->
<g id="edge1" class="edge">
<title>TareaComponent&#45;&gt;TareaModule</title>
<path fill="none" stroke="#000000" d="M857,-122.2843C857,-143.3211 857,-175 857,-175 857,-175 535.8507,-175 535.8507,-175"/>
<polygon fill="#000000" stroke="#000000" points="535.8507,-171.5001 525.8507,-175 535.8507,-178.5001 535.8507,-171.5001"/>
</g>
<!-- TareaItemComponent -->
<g id="node2" class="node">
<title>TareaItemComponent</title>
<polygon fill="#ffffb3" stroke="#000000" points="782.3459,-122 643.6541,-122 643.6541,-86 782.3459,-86 782.3459,-122"/>
<text text-anchor="middle" x="713" y="-99.8" font-family="Times,serif" font-size="14.00" fill="#000000">TareaItemComponent</text>
</g>
<!-- TareaItemComponent&#45;&gt;TareaModule -->
<g id="edge2" class="edge">
<title>TareaItemComponent&#45;&gt;TareaModule</title>
<path fill="none" stroke="#000000" d="M713,-122.0225C713,-139.3734 713,-163 713,-163 713,-163 535.7553,-163 535.7553,-163"/>
<polygon fill="#000000" stroke="#000000" points="535.7553,-159.5001 525.7553,-163 535.7553,-166.5001 535.7553,-159.5001"/>
</g>
<!-- TareaListComponent -->
<g id="node3" class="node">
<title>TareaListComponent</title>
<polygon fill="#ffffb3" stroke="#000000" points="625.4678,-122 490.5322,-122 490.5322,-86 625.4678,-86 625.4678,-122"/>
<text text-anchor="middle" x="558" y="-99.8" font-family="Times,serif" font-size="14.00" fill="#000000">TareaListComponent</text>
</g>
<!-- TareaListComponent&#45;&gt;TareaModule -->
<g id="edge3" class="edge">
<title>TareaListComponent&#45;&gt;TareaModule</title>
<path fill="none" stroke="#000000" d="M508.1098,-122.1061C508.1098,-122.1061 508.1098,-140.991 508.1098,-140.991"/>
<polygon fill="#000000" stroke="#000000" points="504.6098,-140.9909 508.1098,-150.991 511.6098,-140.991 504.6098,-140.9909"/>
</g>
<!-- TareaPrintComponent -->
<g id="node4" class="node">
<title>TareaPrintComponent</title>
<polygon fill="#ffffb3" stroke="#000000" points="472.4144,-122 331.5856,-122 331.5856,-86 472.4144,-86 472.4144,-122"/>
<text text-anchor="middle" x="402" y="-99.8" font-family="Times,serif" font-size="14.00" fill="#000000">TareaPrintComponent</text>
</g>
<!-- TareaPrintComponent&#45;&gt;TareaModule -->
<g id="edge4" class="edge">
<title>TareaPrintComponent&#45;&gt;TareaModule</title>
<path fill="none" stroke="#000000" d="M453.2518,-122.1061C453.2518,-122.1061 453.2518,-140.991 453.2518,-140.991"/>
<polygon fill="#000000" stroke="#000000" points="449.7518,-140.9909 453.2518,-150.991 456.7518,-140.991 449.7518,-140.9909"/>
</g>
<!-- TareaRoutingModule -->
<g id="node6" class="node">
<title>TareaRoutingModule</title>
<polygon fill="#8dd3c7" stroke="#000000" points="308.0254,-122 305.0254,-126 284.0254,-126 281.0254,-122 171.9746,-122 171.9746,-86 308.0254,-86 308.0254,-122"/>
<text text-anchor="middle" x="240" y="-99.8" font-family="Times,serif" font-size="14.00" fill="#000000">TareaRoutingModule</text>
</g>
<!-- TareaRoutingModule&#45;&gt;TareaModule -->
<g id="edge5" class="edge">
<title>TareaRoutingModule&#45;&gt;TareaModule</title>
<path fill="none" stroke="#000000" d="M240,-122.0225C240,-139.3734 240,-163 240,-163 240,-163 424.2929,-163 424.2929,-163"/>
<polygon fill="#000000" stroke="#000000" points="424.293,-166.5001 434.2929,-163 424.2929,-159.5001 424.293,-166.5001"/>
</g>
<!-- TareaService -->
<g id="node7" class="node">
<title>TareaService</title>
<ellipse fill="#fdb462" stroke="#000000" cx="86" cy="-104" rx="61.9326" ry="18"/>
<text text-anchor="middle" x="86" y="-99.8" font-family="Times,serif" font-size="14.00" fill="#000000">TareaService</text>
</g>
<!-- TareaService&#45;&gt;TareaModule -->
<g id="edge6" class="edge">
<title>TareaService&#45;&gt;TareaModule</title>
<path fill="none" stroke="#000000" d="M86,-122.2843C86,-143.3211 86,-175 86,-175 86,-175 424.0321,-175 424.0321,-175"/>
<polygon fill="#000000" stroke="#000000" points="424.0321,-178.5001 434.0321,-175 424.0321,-171.5001 424.0321,-178.5001"/>
</g>
</g>
</svg>
